<?xml version="1.0" encoding="UTF-8" standalone="no"?>
<!-- Created with Inkscape (http://www.inkscape.org/) -->

<svg
   xmlns:dc="http://purl.org/dc/elements/1.1/"
   xmlns:cc="http://creativecommons.org/ns#"
   xmlns:rdf="http://www.w3.org/1999/02/22-rdf-syntax-ns#"
   xmlns:svg="http://www.w3.org/2000/svg"
   xmlns="http://www.w3.org/2000/svg"
   xmlns:xlink="http://www.w3.org/1999/xlink"
   xmlns:sodipodi="http://sodipodi.sourceforge.net/DTD/sodipodi-0.dtd"
   xmlns:inkscape="http://www.inkscape.org/namespaces/inkscape"
   version="1.1"
   width="82.564766"
   height="86.73085"
   id="svg3344"
   inkscape:version="0.48.4 r9939"
   sodipodi:docname="background.svg">
  <sodipodi:namedview
     pagecolor="#ffffff"
     bordercolor="#666666"
     borderopacity="1"
     objecttolerance="10"
     gridtolerance="10"
     guidetolerance="10"
     inkscape:pageopacity="0"
     inkscape:pageshadow="2"
     inkscape:window-width="1239"
     inkscape:window-height="1000"
     id="namedview3481"
     showgrid="false"
     fit-margin-top="10"
     fit-margin-left="10"
     fit-margin-right="10"
     fit-margin-bottom="10"
     inkscape:zoom="6.6067171"
     inkscape:cx="35.226222"
     inkscape:cy="32.562575"
     inkscape:window-x="41"
     inkscape:window-y="24"
     inkscape:window-maximized="1"
     inkscape:current-layer="svg3344" />
  <defs
     id="defs3346">
    <linearGradient
       x1="399.06931"
       y1="663.08112"
       x2="401.867"
       y2="660.28339"
       id="linearGradient3215"
       xlink:href="#SVGID_5_"
       gradientUnits="userSpaceOnUse" />
    <linearGradient
       x1="399.06931"
       y1="663.08112"
       x2="401.867"
       y2="660.28339"
       id="SVGID_5_"
       gradientUnits="userSpaceOnUse">
      <stop
         id="stop2902"
         style="stop-color:#88221a;stop-opacity:1"
         offset="0" />
      <stop
         id="stop2904"
         style="stop-color:#c43827;stop-opacity:1"
         offset="1" />
    </linearGradient>
    <linearGradient
       x1="399.06931"
       y1="663.08112"
       x2="401.867"
       y2="660.28339"
       id="linearGradient3270"
       xlink:href="#SVGID_5_"
       gradientUnits="userSpaceOnUse" />
    <linearGradient
       x1="399.06931"
       y1="663.08112"
       x2="401.867"
       y2="660.28339"
       id="linearGradient3272"
       gradientUnits="userSpaceOnUse">
      <stop
         id="stop3274"
         style="stop-color:#88221a;stop-opacity:1"
         offset="0" />
      <stop
         id="stop3276"
         style="stop-color:#c43827;stop-opacity:1"
         offset="1" />
    </linearGradient>
    <clipPath
       id="SVGID_6_">
      <use
         id="use2909"
         style="overflow:visible"
         x="0"
         y="0"
         width="715.55798"
         height="742.133"
         xlink:href="#SVGID_4_" />
    </clipPath>
    <linearGradient
       x1="409.9512"
       y1="668.42767"
       x2="428.87079"
       y2="649.50812"
       id="linearGradient3150"
       xlink:href="#SVGID_7_"
       gradientUnits="userSpaceOnUse" />
    <linearGradient
       x1="409.9512"
       y1="668.42767"
       x2="428.87079"
       y2="649.50812"
       id="SVGID_7_"
       gradientUnits="userSpaceOnUse">
      <stop
         id="stop2914"
         style="stop-color:#88221a;stop-opacity:1"
         offset="0" />
      <stop
         id="stop2916"
         style="stop-color:#c43827;stop-opacity:1"
         offset="1" />
    </linearGradient>
    <linearGradient
       x1="429.74899"
       y1="690.01862"
       x2="431.22809"
       y2="688.53943"
       id="linearGradient3146"
       xlink:href="#SVGID_3_"
       gradientUnits="userSpaceOnUse" />
    <linearGradient
       x1="429.74899"
       y1="690.01862"
       x2="431.22809"
       y2="688.53943"
       id="SVGID_3_"
       gradientUnits="userSpaceOnUse">
      <stop
         id="stop2888"
         style="stop-color:#c63827;stop-opacity:1"
         offset="0" />
      <stop
         id="stop2890"
         style="stop-color:#88221a;stop-opacity:1"
         offset="1" />
    </linearGradient>
    <linearGradient
       inkscape:collect="always"
       xlink:href="#SVGID_3_"
       id="linearGradient3561"
       gradientUnits="userSpaceOnUse"
       x1="429.74899"
       y1="690.01862"
       x2="431.22809"
       y2="688.53943" />
    <linearGradient
       inkscape:collect="always"
       xlink:href="#SVGID_5_"
       id="linearGradient3563"
       gradientUnits="userSpaceOnUse"
       x1="399.06931"
       y1="663.08112"
       x2="401.867"
       y2="660.28339" />
    <linearGradient
       inkscape:collect="always"
       xlink:href="#SVGID_7_"
       id="linearGradient3565"
       gradientUnits="userSpaceOnUse"
       x1="409.9512"
       y1="668.42767"
       x2="428.87079"
       y2="649.50812" />
  </defs>
  <metadata
     id="metadata3349">
    <rdf:RDF>
      <cc:Work
         rdf:about="">
        <dc:format>image/svg+xml</dc:format>
        <dc:type
           rdf:resource="http://purl.org/dc/dcmitype/StillImage" />
        <dc:title></dc:title>
      </cc:Work>
    </rdf:RDF>
  </metadata>
  <path
     inkscape:connector-curvature="0"
     style="opacity:0.3;fill:#88221a"
     id="path2879"
     d="m 53.461215,30.263906 -22.472021,1.9542 c -1.044254,0.0918 -1.900762,1.01411 -1.904873,2.05836 l -0.0055,2.27352 -2.584598,0.22474 2.529781,2.50101 0.06578,17.18358 22.519986,-1.97064 c 1.049735,-0.0918 1.904873,-1.0141 1.907614,-2.06658 l 0.0027,-2.63393 2.476335,-0.21653 -2.466742,-2.4407 -0.06852,-16.86703 z M 13.735703,14.156077 61.367119,10.014687 c 1.04974,-0.0891 1.99944,0.27272 2.65586,0.92914 l 1.51431,1.49649 6.05722,5.988709 c 0.60298,0.59612 0.96888,1.42796 0.96888,2.38314 l -0.037,11.96233 -2.5613,0.22201 2.501,2.4777 0.0713,18.14015 -2.47085,0.2179 2.46948,2.43936 -0.0233,12.3296 c -0.007,1.9967 -1.63353,3.7645 -3.64666,3.9426 l -47.628683,4.173 c -1.051106,0.092 -1.999432,-0.2741 -2.662711,-0.9292 l -7.568787,-7.4852 c -0.600241,-0.5947 -0.964771,-1.4321 -0.96203,-2.379 l 0.0233,-12.32824 2.476335,-0.2179 L 10.07263,50.935196 10,32.797796 l 2.59282,-0.22749 -2.533892,-2.50648 0.03289,-11.96233 c 0.0027,-2.00766 1.636272,-3.771379 3.643926,-3.945419 z" />
  <g
     id="g2881"
     transform="matrix(1.3704123,0,0,1.3704123,-533.43156,-887.22988)"
     style="opacity:0.3">
    <path
       inkscape:connector-curvature="0"
       style="fill:#c63827"
       id="path2883"
       d="m 410.476,688.617 16.433,-1.438 5.523,5.463 -20.58,1.802 c -0.765,0.069 -1.382,-0.497 -1.382,-1.264 l 0.006,-1.923 -1.802,-1.781 1.805,-0.158 -0.003,-0.701 z" />
  </g>
  <g
     id="g2885"
     transform="matrix(1.3704123,0,0,1.3704123,-533.43156,-887.22988)"
     style="opacity:0.3">
    <linearGradient
       gradientUnits="userSpaceOnUse"
       id="linearGradient15387"
       y2="688.53943"
       x2="431.22809"
       y1="690.01862"
       x1="429.74899">
      <stop
         offset="0"
         style="stop-color:#c63827;stop-opacity:1"
         id="stop15389" />
      <stop
         offset="1"
         style="stop-color:#88221a;stop-opacity:1"
         id="stop15391" />
    </linearGradient>
    <path
       inkscape:connector-curvature="0"
       style="fill:url(#linearGradient3561)"
       id="path2892"
       d="m 432.432,692.642 -5.523,-5.463 c 0.766,-0.067 1.39,-0.74 1.392,-1.508 l 5.523,5.465 c -0.003,0.766 -0.629,1.438 -1.392,1.506 z" />
  </g>
  <g
     id="g2894"
     transform="matrix(1.3704123,0,0,1.3704123,-533.43156,-887.22988)"
     style="opacity:0.3">
    <g
       id="g2896">
      <defs
         id="defs2898">
        <path
           inkscape:connector-curvature="0"
           id="SVGID_4_"
           d="m 402.137,666.088 -5.523,-5.463 c 0.002,-1.463 1.193,-2.75 2.659,-2.877 l 5.522,5.463 c -1.463,0.129 -2.655,1.415 -2.658,2.877 z" />
      </defs>
      <linearGradient
         gradientUnits="userSpaceOnUse"
         id="linearGradient15398"
         y2="660.28339"
         x2="401.867"
         y1="663.08112"
         x1="399.06931">
        <stop
           offset="0"
           style="stop-color:#88221a;stop-opacity:1"
           id="stop15400" />
        <stop
           offset="1"
           style="stop-color:#c43827;stop-opacity:1"
           id="stop15402" />
      </linearGradient>
      <use
         xlink:href="#SVGID_4_"
         height="742.133"
         width="715.55798"
         y="0"
         x="0"
         style="fill:url(#linearGradient3563);overflow:visible"
         id="use2906" />
      <clipPath
         id="clipPath15405">
        <use
           xlink:href="#SVGID_4_"
           height="742.133"
           width="715.55798"
           y="0"
           x="0"
           style="overflow:visible"
           id="use15407" />
      </clipPath>
      <g
         id="g2911"
         clip-path="url(#SVGID_6_)">
        <linearGradient
           gradientUnits="userSpaceOnUse"
           id="linearGradient15410"
           y2="649.50812"
           x2="428.87079"
           y1="668.42767"
           x1="409.9512">
          <stop
             offset="0"
             style="stop-color:#88221a;stop-opacity:1"
             id="stop15412" />
          <stop
             offset="1"
             style="stop-color:#c43827;stop-opacity:1"
             id="stop15414" />
        </linearGradient>
        <polygon
           style="fill:url(#linearGradient3565)"
           id="polygon2918"
           points="404.795,663.211 399.272,657.748 434.029,654.726 439.55,660.187 " />
      </g>
    </g>
  </g>
  <g
     id="g2920"
     transform="matrix(1.3704123,0,0,1.3704123,-533.43156,-887.22988)"
     style="opacity:0.3">
    <path
       inkscape:connector-curvature="0"
       style="fill:#d83c27"
       id="path2922"
       d="m 442.18,688.479 -0.017,8.997 c -0.005,1.457 -1.192,2.747 -2.661,2.877 l -34.755,3.045 c -1.463,0.129 -2.65,-0.955 -2.646,-2.413 l 0.017,-8.995 8.358,-0.733 -0.006,1.923 c 0,0.767 0.617,1.333 1.382,1.264 l 20.58,-1.802 c 0.764,-0.067 1.39,-0.739 1.392,-1.506 l 0.004,-1.924 8.352,-0.733 z" />
  </g>
  <g
     id="g2924"
     transform="matrix(1.3704123,0,0,1.3704123,-533.43156,-887.22988)"
     style="opacity:0.3">
    <polygon
       style="fill:#e1473b"
       id="polygon2926"
       points="442.129,673.303 442.181,686.54 433.831,687.271 433.778,674.035 " />
  </g>
  <g
     id="g2928"
     transform="matrix(1.3704123,0,0,1.3704123,-533.43156,-887.22988)"
     style="opacity:0.3">
    <path
       inkscape:connector-curvature="0"
       style="fill:#c43827"
       id="path2930"
       d="m 435.968,655.403 1.105,1.092 4.42,4.37 c -0.482,-0.479 -1.175,-0.743 -1.943,-0.679 l -34.755,3.024 -5.522,-5.463 34.757,-3.022 c 0.765,-0.065 1.458,0.2 1.938,0.678 z" />
  </g>
  <g
     id="g2932"
     transform="matrix(1.3704123,0,0,1.3704123,-533.43156,-887.22988)"
     style="opacity:0.3">
    <polygon
       style="fill:#e1473b"
       id="polygon2934"
       points="410.428,676.078 410.479,689.317 402.122,690.048 402.07,676.812 " />
  </g>
  <g
     id="g2936"
     transform="matrix(1.3704123,0,0,1.3704123,-533.43156,-887.22988)"
     style="opacity:0.3">
    <path
       inkscape:connector-curvature="0"
       style="fill:#e4574e"
       id="path2938"
       d="m 404.795,663.211 34.755,-3.024 c 1.467,-0.123 2.652,0.955 2.65,2.418 l -0.027,8.729 -8.352,0.729 0.002,-1.66 c 0.002,-0.767 -0.619,-1.331 -1.381,-1.263 l -20.581,1.789 c -0.762,0.067 -1.387,0.74 -1.39,1.502 l -0.004,1.659 -8.354,0.729 0.023,-8.729 c 0.004,-1.464 1.196,-2.75 2.659,-2.879 z" />
  </g>
  <g
     id="g2940"
     transform="matrix(1.3704123,0,0,1.3704123,-533.43156,-887.22988)"
     style="opacity:0.3">
    <path
       inkscape:connector-curvature="0"
       style="opacity:0.3;fill:#ffffff"
       id="path2942"
       d="m 433.827,689.212 -0.004,1.924 c -0.002,0.767 -0.628,1.438 -1.392,1.506 l -20.58,1.802 c -0.688,0.062 -1.257,-0.391 -1.363,-1.038 0.1,0.562 0.593,0.949 1.194,0.895 l 20.734,-1.813 c 0.684,-0.061 1.248,-0.666 1.25,-1.352 l 0.005,-1.924 v -0.155 l 0.156,0.155 z" />
  </g>
  <g
     id="g2944"
     transform="matrix(1.3704123,0,0,1.3704123,-533.43156,-887.22988)"
     style="opacity:0.3">
    <path
       inkscape:connector-curvature="0"
       style="opacity:0.3;fill:#ffffff"
       id="path2946"
       d="m 410.314,693.18 0.005,-1.909 0.156,-0.014 -0.006,1.923 c 0,0.767 0.617,1.333 1.382,1.264 l 20.58,-1.802 c 0.764,-0.067 1.39,-0.739 1.392,-1.506 l 0.004,-1.924 0.158,-0.014 -0.007,1.938 c -0.002,0.849 -0.69,1.588 -1.534,1.661 l -20.578,1.803 c -0.855,0.076 -1.553,-0.561 -1.552,-1.42 z" />
  </g>
  <g
     transform="matrix(0.10929402,-0.00765542,0,-0.10929402,31.488128,51.139712)"
     id="g10"
     style="opacity:0.3">
    <g
       transform="scale(0.1,0.1)"
       id="g12">
      <path
         inkscape:connector-curvature="0"
         d="m 573.535,235.207 c -1.25,0.191 -133.222,19.324 -134.558,19.527 -23.125,3.657 -34.883,15.063 -34.883,33.829 0,18.917 16.25,29.613 29.566,29.613 l 218.156,0 0,81.402 c 0,0 -215.539,0 -217.628,0 -69.059,0 -116.747,-52.519 -116.747,-111.015 0,-51.114 30.711,-104.059 100.997,-114.891 1.25,-0.227 133.308,-19.348 134.558,-19.539 23.227,-3.664 34.887,-15.117 34.887,-33.899 0,-18.906 -16.223,-29.5309 -29.66,-29.5309 l -159.344,0 0,-0.0664 c -32.246,-0.9179 -66.281,-25.664 -66.281,-74.1836 0,-2.1054 0,-4.5664 0,-7.24216 0,0 224.433,0 225.285,0 69.058,0 116.621,52.51566 116.621,111.02306 0,51.121 -30.656,104.121 -100.969,114.973 z m 1157.345,82.969 c 32.32,0.894 66.35,25.711 66.35,74.246 0,2.031 0,4.504 0,7.156 l -235.96,0 c -69.08,0 -116.72,-52.519 -116.72,-111.015 l 0,0 c 0,0 0,-167.477 0,-168.329 0,-58.5074 47.7,-111.02306 116.72,-111.02306 2.14,0 235.96,0 235.96,0 0,2.67576 0,5.13676 0,7.24216 0,48.5196 -34.03,73.2657 -66.35,74.1836 l 0,0.0664 -170.06,0 c -13.35,0 -29.63,10.6249 -29.63,29.5309 0,18.782 12.37,33.899 34.96,33.899 22.5,0 72.35,0 73.69,0 64.85,0.41 102.25,40.133 114.01,85.562 l -177.29,0 c -31.9,0 -45.37,-25.308 -45.37,-25.308 l 0,74.176 c 0,18.917 16.19,29.613 29.63,29.613 l 170.06,0 z M 1855,43.5156 c 0,-2.3164 -1.68,-4.0625 -4.87,-4.0625 l -6.22,0 0,8.2813 6.13,0 c 3.03,0 4.96,-1.4063 4.96,-4.2188 z m 6.29,0.4375 c 0,5.7422 -4.26,9.1992 -11.08,9.1992 l -12.5,0 0,-27.9179 6.2,0 0,8.9922 4.9,0 6.07,-8.9922 7.25,0 -6.88,10 c 3.58,1.25 6.04,4.1406 6.04,8.7187 z m 10.84,-5.5078 c 0,-12.8476 -10.2,-23.3398 -23.59,-23.3398 -13.44,0 -23.46,10.3554 -23.46,23.2226 0,12.9336 10.12,23.3985 23.61,23.3985 13.38,0 23.44,-10.3985 23.44,-23.2813 z m 6.19,0 c 0,15.9805 -13.03,29.1992 -29.63,29.1992 -16.66,0 -29.78,-13.2812 -29.78,-29.3164 0,-16.0312 13.06,-29.18747 29.63,-29.18747 16.62,0 29.78,13.35937 29.78,29.30467 z m -922.324,361.2887 0,-232.183 c 0,-48.496 -39.277,-87.8166 -87.742,-87.8166 -48.535,0 -87.844,39.3206 -87.844,87.8166 l 0,232.183 -84.531,0 0,-227.332 C 695.879,77.1953 773.035,0 868.254,0 963.406,0 1040.57,77.1953 1040.57,172.402 l 0,227.332 -84.574,0 z m 466.314,-279.5 c 0,-58.5074 -47.68,-111.02306 -116.71,-111.02306 -2.12,0 -217.57,0 -217.57,0 l 0,81.49216 218.01,0 c 13.35,0 29.59,10.6249 29.59,29.5309 0,18.782 -11.72,30.235 -34.95,33.899 -1.25,0.191 -133.28,19.312 -134.46,19.539 -70.34,10.832 -101.06,63.777 -101.06,114.891 0,58.496 47.69,111.015 116.77,111.015 2.1,0 217.6,0 217.6,0 l 0,-81.402 -218.12,0 c -13.34,0 -29.53,-10.696 -29.53,-29.613 0,-18.766 11.71,-30.172 34.88,-33.829 1.27,-0.203 133.3,-19.336 134.49,-19.527 70.35,-10.852 101.06,-63.852 101.06,-114.973"
         id="path14"
         style="fill:#231f20;fill-opacity:1;fill-rule:nonzero;stroke:none" />
      <path
         inkscape:connector-curvature="0"
         d="m 895.156,735.73 c 0.657,17.036 7.813,32.844 20.352,44.473 12.402,11.684 28.68,17.695 45.683,17.141 35.313,-1.27 62.909,-30.957 61.749,-66.172 -0.65,-17.031 -7.84,-32.813 -20.24,-44.453 -12.446,-11.641 -28.794,-17.703 -45.852,-17.11 -35.246,1.282 -62.785,30.907 -61.692,66.121 z M 792.629,859.199 c 0,0 -0.566,-30.996 -0.566,-34.433 -15.215,5.086 -126.125,40.906 -230.161,44.558 -88.086,3.067 -208.433,7.285 -378.496,-97.285 l -5.027,-3.121 C 98.3164,718.984 43.0938,657.473 14.2539,585.918 5.125,563.418 -6.98047,512.637 5.03516,464.891 10.2539,443.984 20,423.074 33.0938,404.227 62.5977,361.824 112.156,333.641 165.531,328.855 c 75.375,-6.687 132.465,27.129 152.821,90.493 13.933,43.789 0,107.918 -53.508,140.703 -43.528,26.637 -90.406,20.586 -117.531,2.656 -23.528,-15.676 -36.875,-39.863 -36.653,-66.586 0.496,-47.234 41.266,-72.359 70.512,-72.449 8.547,0 17.141,1.465 26.738,4.59 3.438,1.093 6.621,2.336 10.215,4.597 l 1.121,0.688 0.727,0.418 -0.285,-0.137 c 6.66,4.531 10.722,11.875 10.722,19.813 0,2.187 -0.312,4.375 -0.937,6.593 -3.465,11.985 -15.285,19.219 -27.571,16.907 l -1.621,-0.286 -2.246,-0.703 -3.277,-1.101 c -6.692,-1.711 -11.789,-1.821 -12.883,-1.821 -3.402,0.215 -20.371,5.254 -20.371,23.735 l 0,0.203 c 0.156,6.75 2.812,11.531 4.34,14.141 5.219,8.234 19.625,16.296 38.969,14.55 25.468,-2.175 43.781,-15.183 55.968,-39.785 11.25,-22.937 8.407,-51.094 -7.59,-71.719 -15.847,-20.468 -44.003,-29.187 -81.472,-25.109 -37.813,4.145 -69.781,25.883 -87.6838,59.77 -17.4727,33.043 -18.4688,72.312 -2.4375,102.5 38.2653,72.183 110.5313,71.453 150.0903,64.609 56.347,-9.738 141.691,-60.234 173.75,-177.016 l 77.875,0 c -9.653,29.731 -15.161,115.996 72.5,115.996 96.191,0 108.281,-67.714 135.566,-115.996 l 82.5,0 c -21.66,31.028 -36.938,65.625 -32.094,94.7 7.121,42.957 41.262,39.082 88.528,33.742 15.457,-1.821 33.093,-3.789 51.191,-4.211 50.879,-0.293 96.836,9.012 130.586,23.769 21.82,9.532 35.69,15.813 44.44,23.75 3.16,2.559 4.78,6.844 6.48,11.309 l 1.18,3.035 c 1.41,3.652 3.21,11.445 4.33,15.656 2.23,8.645 -5.42,4.043 -5.42,4.043 -14.72,-8.886 -51.79,-25.761 -86.44,-26.457 -42.871,-0.894 -129.375,43.164 -138.379,47.832 l -0.871,1.036 c -2.222,5.16 -15.152,35.89 -17.906,42.375 62.242,-41.047 113.875,-63.704 153.406,-67.208 44.02,-3.933 78.34,20.125 92.97,30.313 1.62,1.086 7.44,5 6.03,9.687 -5.72,20 -25.45,87 -41.91,103.985 -4.79,4.949 -8.62,9.738 -16.41,14.246 -62.926,36.68 -212.262,58.867 -219.274,59.863 0,0 -1.718,0.442 -1.687,-1.375"
         id="path16"
         style="fill:#6dc52d;fill-opacity:1;fill-rule:nonzero;stroke:none" />
      <path
         inkscape:connector-curvature="0"
         d="m 968.008,729.766 c -10.879,0 -19.727,5.964 -19.727,13.203 0,7.297 8.848,13.203 19.727,13.203 10.937,0 19.805,-5.906 19.805,-13.203 0,-7.239 -8.868,-13.203 -19.805,-13.203 z m -7.324,48.73 c -11.895,0.52 -23.145,-3.762 -31.836,-11.887 -8.719,-8.093 -13.789,-19.097 -14.16,-31.035 -0.782,-24.558 18.437,-45.281 43.007,-46.14 11.934,-0.371 23.243,3.859 31.961,11.906 8.723,8.203 13.724,19.207 14.154,31.051 0.76,24.621 -18.529,45.273 -43.126,46.105"
         id="path18"
         style="fill:#6dc52d;fill-opacity:1;fill-rule:nonzero;stroke:none" />
    </g>
  </g>
</svg>
