<?xml version="1.0" encoding="UTF-8" standalone="no"?>
<!-- Created with Inkscape (http://www.inkscape.org/) -->

<svg
   xmlns:dc="http://purl.org/dc/elements/1.1/"
   xmlns:cc="http://creativecommons.org/ns#"
   xmlns:rdf="http://www.w3.org/1999/02/22-rdf-syntax-ns#"
   xmlns:svg="http://www.w3.org/2000/svg"
   xmlns="http://www.w3.org/2000/svg"
   version="1.1"
   width="134.01576"
   height="67.803802"
   id="svg2"
   xml:space="preserve"><metadata
     id="metadata8"><rdf:RDF><cc:Work
         rdf:about=""><dc:format>image/svg+xml</dc:format><dc:type
           rdf:resource="http://purl.org/dc/dcmitype/StillImage" /><dc:title></dc:title></cc:Work></rdf:RDF></metadata><defs
     id="defs6" /><path
     d="m 111.89423,16.840144 c 0.0821,-2.1295 0.97662,-4.1055 2.544,-5.559125 1.55025,-1.4604995 3.585,-2.2118745 5.71037,-2.1426245 4.41413,0.15875 7.86363,3.8696245 7.71863,8.2714995 -0.0813,2.128875 -0.98,4.101625 -2.53,5.556625 -1.55575,1.455125 -3.59925,2.212875 -5.7315,2.13875 -4.40575,-0.16025 -7.84812,-3.863375 -7.7115,-8.265125 z M 99.078358,1.4065195 c 0,0 -0.07075,3.8745 -0.07075,4.304125 -1.901875,-0.63575 -15.765625,-5.11325001 -28.770125,-5.56975001 -11.01075,-0.383375 -26.054125,-0.910625 -47.312,12.16062451 l -0.628375,0.390125 c -10.007825,6.24175 -16.9106502,13.930625 -20.5156377,22.875 -1.14111246,2.8125 -2.65429621,9.160125 -1.15234246,15.128375 0.65234246,2.613375 1.87060496,5.227125 3.50732996,7.583 3.6879875,5.300375 9.8827752,8.82325 16.5546502,9.4215 9.421875,0.835875 16.558125,-3.391125 19.102625,-11.311625 1.741625,-5.473625 0,-13.48975 -6.6885,-17.587875 -5.441,-3.329625 -11.30075,-2.57325 -14.691375,-0.332 -2.941,1.9595 -4.609375,4.982875 -4.581625,8.32325 0.062,5.90425 5.15825,9.044875 8.814,9.056125 1.068375,0 2.142625,-0.183125 3.34225,-0.57375 0.42975,-0.136625 0.827625,-0.292 1.276875,-0.574625 l 0.140125,-0.086 0.09088,-0.05225 -0.03563,0.01713 c 0.8325,-0.566375 1.34025,-1.484375 1.34025,-2.476625 0,-0.273375 -0.039,-0.546875 -0.117125,-0.824125 -0.433125,-1.498125 -1.910625,-2.402375 -3.446375,-2.113375 l -0.202625,0.03575 -0.28075,0.08788 -0.409625,0.137625 c -0.8365,0.21387 -1.473625,0.22762 -1.610375,0.22762 -0.42525,-0.02688 -2.546375,-0.65675 -2.546375,-2.966875 l 0,-0.02538 c 0.0195,-0.84375 0.3515,-1.441375 0.5425,-1.767625 0.652375,-1.02925 2.453125,-2.037 4.871125,-1.81875 3.1835,0.271875 5.472625,1.897875 6.996,4.973125 1.40625,2.867125 1.050875,6.38675 -0.94875,8.964875 -1.980875,2.558505 -5.500375,3.64838 -10.184,3.13863 -4.726625,-0.518125 -8.722625,-3.235375 -10.960475,-7.47125 -2.1840877,-4.130375 -2.3086002,-9.039 -0.304688,-12.8125 4.783163,-9.022875 13.816413,-8.931625 18.761288,-8.076125 7.043375,1.21725 17.711375,7.52925 21.71875,22.127 l 9.734375,0 c -1.206625,-3.716375 -1.895125,-14.4995 9.0625,-14.4995 12.023875,0 13.535125,8.46425 16.94575,14.4995 l 10.3125,0 c -2.7075,-3.8785 -4.61725,-8.203125 -4.01175,-11.8375 0.890125,-5.369625 5.15775,-4.88525 11.066002,-4.21775 1.93212,0.227625 4.13662,0.473625 6.39887,0.526375 6.35988,0.03662 12.1045,-1.1265 16.32325,-2.971125 2.7275,-1.1915 4.46125,-1.976625 5.555,-2.96875 0.395,-0.319875 0.5975,-0.8555 0.81,-1.413625 l 0.1475,-0.379375 c 0.17625,-0.4565 0.40125,-1.430625 0.54125,-1.957 0.27875,-1.080625 -0.6775,-0.505375 -0.6775,-0.505375 -1.84,1.11075 -6.47375,3.220125 -10.805,3.307125 -5.35888,0.11175 -16.17188,-5.3955 -17.29738,-5.979 l -0.10887,-0.1295 c -0.27775,-0.645 -1.894,-4.48625 -2.23825,-5.296875 7.78025,5.130875 14.23437,7.963 19.17575,8.401 5.5025,0.491625 9.7925,-2.515625 11.62125,-3.789125 0.2025,-0.13575 0.93,-0.625 0.75375,-1.210875 -0.715,-2.5 -3.18125,-10.875 -5.23875,-12.998125 -0.59875,-0.6186245 -1.0775,-1.2172495 -2.05125,-1.7807495 -7.86575,-4.585 -26.53275,-7.358375 -27.409247,-7.482875 0,0 -0.21475,-0.05525 -0.210875,0.171875"
     id="path16"
     style="fill:#6dc52d;fill-opacity:1;fill-rule:nonzero;stroke:none" /><path
     d="m 121.00073,17.585644 c -1.35987,0 -2.46587,-0.7455 -2.46587,-1.650375 0,-0.912125 1.106,-1.650375 2.46587,-1.650375 1.36713,0 2.47563,0.73825 2.47563,1.650375 0,0.904875 -1.10851,1.650375 -2.47563,1.650375 z m -0.9155,-6.09125 c -1.48687,-0.065 -2.89312,0.47025 -3.9795,1.485875 -1.08987,1.011625 -1.72362,2.387125 -1.77,3.879375 -0.0978,3.06975 2.30463,5.660125 5.37588,5.7675 1.49175,0.04638 2.90537,-0.482375 3.99512,-1.48825 1.09038,-1.025375 1.7155,-2.400875 1.76925,-3.881375 0.095,-3.077625 -2.31612,-5.659125 -5.39075,-5.763125"
     id="path18"
     style="fill:#6dc52d;fill-opacity:1;fill-rule:nonzero;stroke:none" /></svg>